<?xml version="1.0" standalone="no"?>
<!DOCTYPE svg PUBLIC "-//W3C//DTD SVG 20010904//EN"
 "http://www.w3.org/TR/2001/REC-SVG-20010904/DTD/svg10.dtd">
<svg version="1.0" xmlns="http://www.w3.org/2000/svg"
 width="613.000000pt" height="613.000000pt" viewBox="0 0 613.000000 613.000000"
 preserveAspectRatio="xMidYMid meet">
<metadata>
Created by potrace 1.11, written by Peter Selinger 2001-2013
</metadata>
<g transform="translate(0.000000,613.000000) scale(0.100000,-0.100000)"
fill="#000000" stroke="none">
<path d="M2887 5749 c-784 -47 -1508 -439 -1983 -1075 -268 -359 -439 -775
-511 -1241 -24 -158 -24 -577 0 -733 79 -507 270 -947 576 -1328 435 -540
1068 -891 1762 -977 162 -20 496 -20 658 0 694 86 1327 437 1762 977 307 381
498 822 576 1328 24 157 24 576 0 733 -72 467 -243 882 -511 1241 -424 567
-1043 941 -1742 1050 -88 14 -403 38 -444 34 -8 0 -72 -4 -143 -9z m679 -383
c108 -49 177 -141 210 -282 13 -53 15 -98 11 -199 -9 -216 -45 -373 -139 -608
-220 -552 -741 -1104 -1333 -1413 -121 -64 -129 -66 -141 -49 -8 11 -14 24
-14 29 0 6 38 31 84 55 46 24 130 78 187 120 470 349 840 949 941 1521 7 41
13 149 13 240 l0 165 -33 68 c-27 54 -42 72 -78 93 -43 25 -51 26 -142 22 -72
-4 -113 -12 -158 -30 -159 -66 -319 -220 -453 -436 -317 -510 -550 -1441 -553
-2207 -1 -110 2 -233 6 -273 l8 -73 36 53 c48 72 154 176 227 224 33 21 62 42
65 45 17 20 145 97 223 135 218 105 434 113 622 25 512 -241 591 -1063 148
-1542 -123 -132 -305 -238 -488 -285 -146 -37 -326 -43 -459 -16 -420 88 -702
487 -802 1137 -29 184 -27 679 3 900 110 802 359 1492 713 1977 95 130 298
334 415 416 152 108 325 182 494 212 25 5 109 8 186 6 129 -2 145 -4 201 -30z
m861 -183 c71 -33 129 -129 159 -263 23 -101 23 -388 0 -565 -73 -567 -254
-977 -562 -1275 -205 -198 -428 -308 -701 -346 -113 -16 -273 -13 -273 4 0 4
40 17 89 29 217 54 445 185 622 357 229 224 412 576 510 986 122 510 151 858
77 932 -45 45 -165 4 -341 -115 -54 -37 -100 -67 -103 -67 -13 0 68 103 135
173 152 157 272 203 388 150z"/>
</g>
</svg>
