<?xml version="1.0" encoding="utf-8"?>
<!-- Generator: Adobe Illustrator 22.0.1, SVG Export Plug-In . SVG Version: 6.00 Build 0)  -->
<svg version="1.1" id="Layer_1" xmlns="http://www.w3.org/2000/svg" xmlns:xlink="http://www.w3.org/1999/xlink" x="0px" y="0px"
	 viewBox="0 0 38.3 34.3" style="enable-background:new 0 0 38.3 34.3;" xml:space="preserve">
<style type="text/css">
	.st0{fill:#F17922;}
</style>
<g>
	<g>
		<path class="st0" d="M35,6.8H3.3C2,6.8,0.8,5.7,0.8,4.3V3.4c0-1.3,1.1-2.5,2.5-2.5H35c1.3,0,2.5,1.1,2.5,2.5v0.9
			C37.5,5.7,36.3,6.8,35,6.8z"/>
	</g>
	<g>
		<path class="st0" d="M35,20.1H3.3c-1.3,0-2.5-1.1-2.5-2.5v-0.9c0-1.3,1.1-2.5,2.5-2.5H35c1.3,0,2.5,1.1,2.5,2.5v0.9
			C37.5,18.9,36.3,20.1,35,20.1z"/>
	</g>
	<g>
		<path class="st0" d="M35,33.4H3.3c-1.3,0-2.5-1.2-2.5-2.5V30c0-1.3,1.1-2.5,2.5-2.5H35c1.3,0,2.5,1.1,2.5,2.5v0.9
			C37.5,32.2,36.3,33.4,35,33.4z"/>
	</g>
</g>
</svg>
